GENRE                            : Animation | Adventure | Comedy Family
IDMB                             : http://www.imdb.com/title/tt0435761/

Format/Info                      : Audio Video Interleave
File size                        : 701 MiB
Duration                         : 1h 41mn
Overall bit rate                 : 965 Kbps
Writing application              : VirtualDubMod 1.5.10.2 (build 2542/release)
Writing library                  : VirtualDubMod build 2542/release

Video
ID                               : 0
Format                           : MPEG-4 Visual
Format profile                   : AdvancedSimple@L5
Format settings, BVOP            : Yes
Format settings, QPel            : No
Format settings, GMC             : No warppoints
Format settings, Matrix          : Custom
Muxing mode                      : Packed bitstream
Codec ID                         : XVID
Codec ID/Hint                    : XviD
Duration                         : 1h 41mn
Bit rate                         : 835 Kbps
Width                            : 720 pixels
Height                           : 304 pixels
Display aspect ratio             : 2.35:1
Frame rate                       : 29.970 fps
Resolution                       : 24 bits
Colorimetry                      : 4:2:0
Scan type                        : Progressive
Bits/(Pixel*Frame)               : 0.127
Stream size                      : 607 MiB (87%)
Writing library                  : XviD 1.2.1 (UTC 2008-12-04)

Audio
ID                               : 1
Format                           : MPEG Audio
Format version                   : Version 1
Format profile                   : Layer 3
Codec ID                         : 55
Codec ID/Hint                    : MP3
Duration                         : 1h 34mn
Bit rate mode                    : Constant
Bit rate                         : 128 Kbps
Channel(s)                       : 2 channels
Sampling rate                    : 48.0 KHz
Resolution                       : 16 bits
Stream size                      : 86.2 MiB (12%)
Alignment                        : Aligned on interleaves
Interleave, duration             : 36 ms (1.08 video frame)
Interleave, preload duration     : 504 ms
Writing library                  : LAMELAME_MAJOR_VERSI





PLOT                             : 

The toys are mistakenly delivered to a day-care center instead of the attic right before Andy leaves for college, and it's up to Woody to convince the other toys that they weren't abandoned and to return home